<svg id="Layer_1" data-name="Layer 1" xmlns="http://www.w3.org/2000/svg" viewBox="0 0 1481 150.71"><title>divider</title><g id="Layer_2" data-name="Layer 2"><path d="M0,7.71s28-16,105,24,211,116,363,114,343-129,445-122c95.53,6.55,182,55.61,256,57,107,2,312-60,312-60v130H0Z" style="fill:#373f51"/><path d="M18.5.21A101.12,101.12,0,0,1,43.29,1.83a136.17,136.17,0,0,1,24,6.7L73,10.92c1.89.84,3.79,1.68,5.67,2.56,3.76,1.75,7.5,3.53,11.18,5.46,7.36,3.8,14.62,7.83,21.62,12.27q-5.4-3.08-10.91-5.95T89.53,19.62c-3.72-1.81-7.44-3.62-11.21-5.31-1.88-.87-3.78-1.69-5.68-2.52L66.91,9.46A144,144,0,0,0,43.14,2.58C39.09,1.79,35,1.14,30.89.74A93.18,93.18,0,0,0,18.5.21Z" style="fill:#373f51"/><path d="M195.5,67.21c19,9.64,37.86,19.43,57.23,28,4.84,2.15,9.75,4.13,14.68,6.1s9.91,3.8,14.89,5.63,10,3.63,15,5.36c2.51.88,5,1.72,7.56,2.56s5.05,1.66,7.63,2.31c-2.64-.37-5.25-1-7.84-1.58s-5.17-1.31-7.75-2c-5.14-1.42-10.25-2.92-15.33-4.56s-10.13-3.33-15.14-5.19-10-3.79-14.89-5.93c-9.81-4.24-19.36-9-28.71-14.15S204.32,73.21,195.5,67.21Z" style="fill:#373f51"/><path d="M342.5,122.21" style="fill:none;stroke:#373f51;stroke-miterlimit:10"/><path d="M351.5,122.21a168.17,168.17,0,0,0,24.61,6c8.31,1.47,16.69,2.46,25.09,3.19l6.3.45c2.11.15,4.21.2,6.32.31,4.2.24,8.42.22,12.63.28s8.43-.1,12.64-.16c4.21-.22,8.42-.38,12.63-.65,8.44-.55,16.87-1.17,25.28-1.93s16.83-1.61,25.24-2.47,16.8-2,25.17-3.13,16.75-2.41,25.09-3.88a472.62,472.62,0,0,1-50,9.33c-4.2.55-8.4,1.15-12.62,1.6l-6.32.73-6.32.65c-8.44.85-16.89,1.5-25.35,2.09a295.79,295.79,0,0,1-50.94-.9,237.52,237.52,0,0,1-25.16-4.08c-4.14-.95-8.26-2-12.33-3.2A103.28,103.28,0,0,1,351.5,122.21Z" style="fill:#373f51"/><path d="M649.5,92.21Q670.95,80.15,693.43,70c7.45-3.45,15-6.6,22.63-9.75s15.31-6,23.09-8.64c15.6-5.31,31.42-9.63,47.3-13.78s31.88-7.82,48-10.63c-8,2-15.89,4.05-23.78,6.26s-15.78,4.38-23.66,6.63S771.33,44.66,763.49,47c-3.91,1.22-7.86,2.32-11.74,3.59l-5.83,1.85-5.8,2c-15.46,5.27-30.66,11.35-45.75,17.7-7.54,3.19-15,6.44-22.52,9.81S656.92,88.72,649.5,92.21Z" style="fill:#373f51"/><path d="M797.47,27.06c5.49-1.25,11-2.42,16.5-3.61L830.5,20c5.52-1.11,11-2.46,16.58-3.18,2.8-.36,5.6-.71,8.41-.94s5.64-.4,8.49-.36l0,.3c-5.45,1.59-10.93,2.83-16.44,4s-11.1,1.73-16.66,2.58l-16.69,2.52-16.7,2.43Z" style="fill:#373f51"/><path d="M1006.53,27.06c9.85,2.17,19.52,5,29.18,7.81s19.23,6,28.79,9.08,19.3,5.51,28.93,8.27,19.33,5.34,29.09,7.84l0,.3c-5-.43-10-1.16-15-2.08s-9.9-2-14.8-3.16c-2.45-.6-4.89-1.25-7.32-1.93s-4.83-1.44-7.25-2.16c-4.8-1.56-9.59-3.14-14.35-4.8-9.52-3.34-19-6.75-28.49-9.93s-19.07-6.4-28.79-8.95Z" style="fill:#373f51"/><path d="M1194.5,68.21a271,271,0,0,0,31.75-1.14c5.27-.54,10.54-1,15.77-1.76s10.48-1.45,15.7-2.34,10.46-1.76,15.69-2.65l15.69-2.67,31.4-5.44c-10.19,3.07-20.56,5.5-31,7.74-5.2,1.15-10.42,2.14-15.64,3.17s-10.45,1.92-15.7,2.81-10.54,1.62-15.85,2.19l-4,.41-4,.34c-2.66.26-5.33.36-8,.52-5.33.25-10.66.32-16,.18A124.63,124.63,0,0,1,1194.5,68.21Z" style="fill:#373f51"/><path d="M1305.53,46.35a.13.13,0,0,1-.12,0c-.09-.43.11-.23,0-.28h0l.07,0,.13-.05.26-.09.53-.19,1.06-.38,2.11-.75,4.23-1.5,8.44-3c5.62-2,11.24-4,16.8-6.23a103.67,103.67,0,0,1,17.44-4.75,110.19,110.19,0,0,1,17.92-2l0,.3c-5.83,1.41-11.62,2.8-17.37,4.32s-11.43,3.15-17.09,4.87-11.47,3.45-17.22,5.1c-2.87.85-5.76,1.63-8.65,2.41l-4.33,1.17-2.17.56-1.09.28-.54.14-.27.07-.14,0-.07,0h0c-.08-.05.12.16,0-.26a.15.15,0,0,0-.1,0Z" style="fill:#373f51"/></g></svg>