<?xml version="1.0" standalone="no"?>
<!DOCTYPE svg PUBLIC "-//W3C//DTD SVG 20010904//EN"
 "http://www.w3.org/TR/2001/REC-SVG-20010904/DTD/svg10.dtd">
<svg version="1.0" xmlns="http://www.w3.org/2000/svg"
 width="362.000000pt" height="362.000000pt" viewBox="0 0 362.000000 362.000000"
 preserveAspectRatio="xMidYMid meet">
<metadata>
Created by potrace 1.11, written by Peter Selinger 2001-2013
</metadata>
<g transform="translate(0.000000,362.000000) scale(0.100000,-0.100000)"
fill="#000000" stroke="none">
<path d="M368 3445 c-2 -47 0 -94 4 -103 4 -9 7 -13 7 -9 1 4 9 3 20 -2 10 -6
22 -7 25 -3 4 4 23 8 41 8 27 1 32 -2 28 -15 -4 -14 -3 -14 9 -1 11 13 41 17
80 11 4 -1 7 -309 8 -685 0 -542 -2 -685 -12 -688 -7 -2 -57 -4 -110 -3 l-98
1 -1 -48 c0 -26 -1 -68 -1 -93 -1 -25 2 -48 5 -51 3 -3 38 -6 76 -6 40 0 68
-4 65 -9 -3 -5 -10 -6 -16 -3 -7 5 -8 2 -4 -5 6 -9 12 -9 25 3 23 21 40 20 65
-1 20 -17 20 -17 7 0 -12 16 -9 17 38 17 33 0 50 -4 46 -10 -4 -6 -11 -7 -17
-4 -7 5 -8 2 -4 -5 6 -9 12 -9 25 3 23 21 40 20 65 -1 20 -17 20 -17 7 0 -12
16 -10 17 28 17 24 0 40 -4 36 -9 -3 -5 -1 -13 5 -16 6 -4 9 -1 8 7 -2 9 11
14 45 15 29 2 45 -1 42 -7 -4 -6 -11 -7 -17 -4 -7 5 -8 2 -4 -5 6 -9 12 -9 25
3 23 21 40 20 65 -1 20 -17 20 -17 7 0 -12 16 -10 17 28 17 24 0 40 -4 36 -9
-3 -5 -1 -13 5 -16 6 -4 9 -1 8 7 -2 9 11 14 45 15 29 2 45 -1 42 -7 -4 -6
-11 -7 -17 -4 -7 4 -8 2 -4 -5 6 -9 11 -9 23 1 10 8 51 12 119 13 l103 0 -5
-101 c-5 -107 -9 -138 -19 -154 -3 -6 -1 -10 5 -10 6 0 8 -5 5 -11 -4 -6 -9
-56 -12 -112 -3 -60 -10 -105 -17 -109 -8 -6 -7 -8 2 -8 7 0 11 -4 8 -8 -5 -8
-18 -188 -20 -264 -1 -21 -3 -38 -6 -38 -3 0 -5 -20 -4 -45 1 -31 -2 -43 -10
-38 -7 4 -6 1 1 -9 7 -8 10 -17 7 -20 -3 -3 -7 -39 -9 -79 -6 -123 -21 -313
-28 -354 -4 -18 -12 -20 -110 -20 -95 0 -107 -2 -108 -17 0 -10 0 -45 0 -78 0
-101 0 -100 22 -100 11 0 18 -4 14 -9 -3 -5 -1 -13 5 -16 6 -4 9 -1 8 7 -2 10
20 13 95 15 54 1 95 -2 92 -7 -3 -5 -1 -12 5 -15 6 -4 9 -1 8 7 -2 10 24 13
122 13 98 0 124 -3 122 -13 -1 -8 2 -11 8 -7 6 3 8 11 4 16 -4 6 26 9 80 8 48
-1 90 1 93 5 8 7 6 173 -1 185 -3 4 -38 6 -78 6 -40 -1 -79 4 -87 9 -11 8 -13
8 -7 -2 6 -9 3 -12 -10 -10 -28 5 -31 13 -26 76 2 31 5 78 6 104 0 27 4 48 7
48 3 0 5 12 3 27 -1 15 2 33 7 39 6 7 6 15 1 18 -5 3 -8 20 -6 38 3 18 6 53 8
78 3 25 5 45 6 45 1 0 3 35 5 78 2 42 6 105 9 140 3 34 9 105 12 157 8 116 11
153 14 160 5 14 2 149 -4 159 -4 6 -3 11 2 11 6 0 13 -16 16 -35 4 -19 18 -59
32 -90 13 -31 22 -60 19 -65 -3 -4 2 -10 10 -14 8 -3 15 -12 15 -21 0 -9 7
-27 16 -40 9 -14 13 -25 10 -25 -4 0 0 -10 9 -23 8 -13 12 -27 8 -30 -3 -4 -1
-7 5 -7 7 0 12 -7 12 -15 0 -9 7 -27 16 -40 9 -13 12 -30 8 -36 -4 -7 -3 -9 3
-6 6 4 14 -4 17 -17 3 -14 22 -59 41 -100 19 -42 36 -82 38 -88 1 -7 8 -19 15
-27 7 -7 11 -20 8 -27 -3 -8 -1 -14 4 -14 6 0 10 -9 10 -20 0 -11 5 -20 10
-20 6 0 10 -6 10 -12 1 -7 9 -31 20 -53 21 -44 26 -70 10 -60 -5 3 -10 1 -10
-5 0 -7 7 -10 15 -6 13 4 41 -28 37 -44 0 -3 5 -18 13 -35 7 -16 15 -38 19
-47 4 -14 16 -18 50 -18 26 0 46 -5 49 -12 4 -10 6 -10 6 0 1 6 12 12 26 12
14 0 25 -6 25 -12 0 -9 2 -10 8 -2 4 7 19 12 35 13 63 4 66 5 56 17 -11 14 9
66 22 58 5 -3 6 1 3 9 -3 8 7 41 22 73 15 32 39 87 54 122 14 34 30 59 35 55
4 -5 5 -2 1 5 -4 6 -4 18 1 25 4 6 8 14 8 17 1 3 8 22 18 43 19 41 37 85 57
134 7 18 17 33 22 33 5 0 7 3 5 8 -5 8 57 154 64 148 2 -2 5 7 6 21 0 14 5 28
10 32 4 3 9 13 11 21 2 8 14 39 28 68 13 29 24 57 24 62 0 6 4 10 9 10 5 0 9
6 8 13 -1 31 4 57 11 57 4 0 7 -27 7 -60 0 -33 -4 -60 -9 -60 -5 0 -4 -6 3
-13 8 -10 7 -17 -1 -25 -8 -8 -9 -12 -1 -12 7 0 10 -18 10 -45 -1 -25 0 -45 3
-45 6 0 13 -107 14 -217 1 -40 4 -73 7 -73 4 0 8 -24 8 -53 4 -130 6 -167 13
-167 4 0 3 -11 -2 -25 -6 -15 -6 -26 0 -30 5 -3 9 -16 9 -28 -1 -12 2 -65 7
-117 4 -52 8 -117 8 -145 l1 -49 -102 -1 -103 0 -1 -30 c-3 -92 -1 -157 5
-162 3 -3 62 -6 131 -5 93 0 123 -3 118 -11 -5 -9 -3 -9 8 -1 19 16 359 16
378 0 11 -8 13 -8 7 2 -5 8 0 12 16 12 23 0 23 1 20 92 -2 51 -5 95 -8 98 -3
2 -49 5 -102 6 -121 2 -114 1 -111 22 1 9 0 19 -1 22 -4 10 -8 67 -12 157 -1
51 -6 93 -10 93 -8 0 -5 21 6 39 6 10 5 12 -3 7 -9 -6 -12 6 -12 46 0 89 -4
158 -9 158 -3 0 -6 11 -6 25 -1 16 2 22 10 18 7 -5 7 -2 -1 8 -6 8 -15 57 -18
109 -4 52 -9 120 -12 150 -2 30 -6 78 -8 105 -2 28 -6 75 -9 105 -3 30 -7 84
-10 120 -2 36 -8 95 -12 132 -5 50 -4 68 5 68 7 0 10 -4 7 -8 -3 -5 1 -9 9 -9
8 0 12 3 10 7 -5 9 93 2 108 -7 6 -3 7 -1 3 5 -4 7 7 10 34 7 34 -3 40 -1 40
16 0 10 6 19 13 19 9 0 9 2 0 8 -15 9 -14 72 1 72 6 0 5 4 -2 9 -8 4 -13 11
-13 15 1 3 1 17 1 31 l0 25 -248 0 c-285 0 -247 14 -298 -110 -14 -36 -32 -78
-39 -95 -8 -16 -30 -70 -50 -120 -20 -49 -45 -108 -55 -130 -10 -22 -21 -50
-24 -62 -4 -13 -12 -23 -17 -23 -6 0 -8 -4 -5 -9 3 -5 -6 -35 -20 -67 -14 -33
-34 -77 -44 -99 -9 -22 -29 -69 -43 -105 -14 -36 -46 -110 -70 -165 -24 -55
-52 -129 -62 -163 -18 -60 -20 -62 -27 -35 -4 15 -6 34 -3 41 3 7 0 10 -5 7
-9 -6 -14 10 -13 43 1 6 -3 12 -7 12 -5 0 -12 10 -15 23 -4 12 -13 36 -20 52
-34 76 -44 108 -38 118 3 5 2 7 -3 4 -6 -3 -16 9 -23 26 -7 18 -22 51 -32 75
-11 24 -17 47 -14 52 4 6 2 10 -4 10 -5 0 -17 21 -27 47 -10 27 -21 53 -25 58
-4 6 -9 19 -11 30 -1 11 -5 22 -8 25 -3 3 -21 41 -39 85 -19 44 -45 106 -59
137 -14 32 -21 62 -16 70 4 7 3 10 -1 5 -9 -8 -66 113 -59 125 3 4 1 8 -4 8
-9 0 -24 38 -26 65 -1 14 63 57 75 50 5 -4 6 2 2 12 -3 10 -3 15 1 12 8 -8 94
73 89 84 -2 4 3 7 11 7 9 0 15 3 14 8 -4 12 28 52 36 45 4 -4 4 0 0 10 -3 9
-2 17 2 17 5 0 20 25 33 55 14 31 32 55 40 56 9 0 11 3 5 5 -7 3 -10 14 -7 24
3 11 10 17 16 13 6 -3 7 -1 3 6 -10 15 2 64 13 57 4 -3 6 6 3 21 -3 14 -1 24
4 21 5 -3 10 17 11 46 3 59 6 76 16 93 4 6 3 14 -3 18 -6 4 -7 12 -3 18 11 18
-1 269 -13 289 -3 4 -6 20 -8 35 -6 43 -44 150 -78 216 -99 197 -263 329 -491
394 l-92 26 -502 4 -501 5 -4 -87z m533 -139 c11 -14 18 -16 23 -7 4 6 3 10
-2 9 -6 -2 -12 1 -13 7 -3 6 49 9 136 7 77 -1 163 -2 192 -2 29 -1 55 -5 58
-10 3 -5 12 -7 20 -3 9 3 23 -1 32 -8 9 -8 18 -13 20 -11 8 6 24 1 19 -6 -3
-5 1 -9 9 -9 8 0 11 5 8 10 -3 6 -2 8 3 5 5 -3 29 -15 54 -26 61 -29 132 -77
123 -85 -3 -4 -1 -7 6 -7 26 0 107 -103 95 -121 -4 -7 -3 -9 3 -6 12 8 63 -82
63 -111 0 -10 4 -22 8 -28 28 -31 46 -269 29 -394 -41 -311 -244 -509 -552
-538 -64 -6 -329 -8 -382 -3 -9 1 -12 163 -11 673 0 370 2 676 4 679 7 13 39
4 55 -15z"/>
<path d="M1036 3302 c-3 -5 1 -9 9 -9 8 0 12 4 9 9 -3 4 -7 8 -9 8 -2 0 -6 -4
-9 -8z"/>
<path d="M1190 3301 c0 -6 4 -13 10 -16 6 -3 7 1 4 9 -7 18 -14 21 -14 7z"/>
<path d="M1240 3299 c-12 -9 -12 -10 4 -5 10 4 26 1 35 -6 14 -12 14 -11 2 5
-16 20 -21 21 -41 6z"/>
<path d="M546 1742 c-3 -5 1 -9 9 -9 8 0 12 4 9 9 -3 4 -7 8 -9 8 -2 0 -6 -4
-9 -8z"/>
<path d="M616 1738 c3 -5 10 -6 15 -3 13 9 11 12 -6 12 -8 0 -12 -4 -9 -9z"/>
<path d="M776 1738 c3 -5 10 -6 15 -3 13 9 11 12 -6 12 -8 0 -12 -4 -9 -9z"/>
<path d="M1016 1738 c3 -5 10 -6 15 -3 13 9 11 12 -6 12 -8 0 -12 -4 -9 -9z"/>
<path d="M1236 1738 c3 -5 10 -6 15 -3 13 9 11 12 -6 12 -8 0 -12 -4 -9 -9z"/>
<path d="M1215 160 c3 -5 8 -10 11 -10 2 0 4 5 4 10 0 6 -5 10 -11 10 -5 0 -7
-4 -4 -10z"/>
<path d="M1455 160 c3 -5 8 -10 11 -10 2 0 4 5 4 10 0 6 -5 10 -11 10 -5 0 -7
-4 -4 -10z"/>
<path d="M2655 160 c3 -5 8 -10 11 -10 2 0 4 5 4 10 0 6 -5 10 -11 10 -5 0 -7
-4 -4 -10z"/>
<path d="M2775 160 c3 -5 8 -10 11 -10 2 0 4 5 4 10 0 6 -5 10 -11 10 -5 0 -7
-4 -4 -10z"/>
<path d="M2975 160 c3 -5 8 -10 11 -10 2 0 4 5 4 10 0 6 -5 10 -11 10 -5 0 -7
-4 -4 -10z"/>
<path d="M1353 145 c0 -8 4 -12 9 -9 5 3 6 10 3 15 -9 13 -12 11 -12 -6z"/>
</g>
</svg>
